<?xml version="1.0" encoding="UTF-8"?>
<svg xmlns="http://www.w3.org/2000/svg" xmlns:xlink="http://www.w3.org/1999/xlink" width="4800" height="4800" viewBox="0 0 4800 4800">
<defs>
<clipPath id="clip-0">

</clipPath>
<clipPath id="clip-1">
<path clip-rule="evenodd" d="M 1604.230469 2880.359375 C 1604.230469 2539.011719 2113.820312 2261.871094 2741.488281 2261.871094 C 3369.160156 2261.871094 3878.738281 2539.011719 3878.738281 2880.359375 C 3878.738281 3128.089844 3606.929688 3351.921875 3187.988281 3449.179688 L 3139 3808.089844 L 2803.328125 3497.929688 C 2782.730469 3498.539062 2762.109375 3498.839844 2741.488281 3498.839844 C 2113.820312 3498.839844 1604.230469 3221.710938 1604.230469 2880.359375 Z M 1604.230469 2880.359375 "/>
</clipPath>
<clipPath id="clip-2">
<path clip-rule="nonzero" d="M 2215 2261 L 3394 2261 L 3394 2461 L 2215 2461 Z M 2215 2261 "/>
</clipPath>
<clipPath id="clip-3">
<path clip-rule="evenodd" d="M 1720.011719 1726.039062 C 1720.011719 1320.859375 2229.589844 991.910156 2857.261719 991.910156 C 3484.929688 991.910156 3994.511719 1320.859375 3994.511719 1726.039062 C 3994.511719 1889.339844 3910.160156 2047.980469 3754.808594 2176.859375 L 3994.511719 2538.128906 L 3461.820312 2347.839844 C 3280.671875 2421.230469 3071.128906 2460.160156 2857.261719 2460.160156 C 2229.589844 2460.160156 1720.011719 2131.210938 1720.011719 1726.039062 Z M 1720.011719 1726.039062 "/>
</clipPath>
<clipPath id="clip-4">
<path clip-rule="nonzero" d="M 1721 1765 L 2742 1765 L 2742 2457 L 1721 2457 Z M 1721 1765 "/>
</clipPath>
<clipPath id="clip-5">
<path clip-rule="evenodd" d="M 1720.011719 1726.039062 C 1720.011719 1320.859375 2229.589844 991.910156 2857.261719 991.910156 C 3484.929688 991.910156 3994.511719 1320.859375 3994.511719 1726.039062 C 3994.511719 1889.339844 3910.160156 2047.980469 3754.808594 2176.859375 L 3994.511719 2538.128906 L 3461.820312 2347.839844 C 3280.671875 2421.230469 3071.128906 2460.160156 2857.261719 2460.160156 C 2229.589844 2460.160156 1720.011719 2131.210938 1720.011719 1726.039062 Z M 1720.011719 1726.039062 "/>
</clipPath>
</defs>

<path fill-rule="evenodd" fill="rgb(20.800781%, 83.789062%, 4.399109%)" fill-opacity="1" d="M 2741.488281 2136.78125 C 2741.488281 1931.601562 2574.910156 1765.019531 2369.730469 1765.019531 L 1177.238281 1765.019531 C 972.066406 1765.019531 805.488281 1931.601562 805.488281 2136.78125 L 805.488281 2880.289062 C 805.488281 3085.46875 972.066406 3252.050781 1177.238281 3252.050781 L 1434.691406 3252.050781 L 1210.800781 3808.089844 L 1725.089844 3252.050781 L 2369.730469 3252.050781 C 2574.910156 3252.050781 2741.488281 3085.46875 2741.488281 2880.289062 L 2741.488281 2136.78125 "/>
<path fill-rule="evenodd" fill="rgb(16.209412%, 34.301758%, 94.334412%)" fill-opacity="1" d="M 1604.230469 2880.359375 C 1604.230469 2539.011719 2113.820312 2261.871094 2741.488281 2261.871094 C 3369.160156 2261.871094 3878.738281 2539.011719 3878.738281 2880.359375 C 3878.738281 3128.089844 3606.929688 3351.921875 3187.988281 3449.179688 L 3139 3808.089844 L 2803.328125 3497.929688 C 2782.730469 3498.539062 2762.109375 3498.839844 2741.488281 3498.839844 C 2113.820312 3498.839844 1604.230469 3221.710938 1604.230469 2880.359375 "/>
<g clip-path="url(#clip-0)">
<g clip-path="url(#clip-1)">
<path fill-rule="evenodd" fill="rgb(0%, 14.598083%, 63.476562%)" fill-opacity="1" d="M 2741.488281 2261.871094 L 2741.488281 2880.289062 C 2741.488281 3085.46875 2574.910156 3252.050781 2369.730469 3252.050781 L 1832.691406 3252.050781 C 1689.269531 3148.53125 1604.230469 3019.800781 1604.230469 2880.359375 C 1604.230469 2539.011719 2113.820312 2261.871094 2741.488281 2261.871094 "/>
</g>
</g>
<path fill-rule="evenodd" fill="rgb(100%, 2.49939%, 0%)" fill-opacity="1" d="M 1720.011719 1726.039062 C 1720.011719 1320.859375 2229.589844 991.910156 2857.261719 991.910156 C 3484.929688 991.910156 3994.511719 1320.859375 3994.511719 1726.039062 C 3994.511719 1889.339844 3910.160156 2047.980469 3754.808594 2176.859375 L 3994.511719 2538.128906 L 3461.820312 2347.839844 C 3280.671875 2421.230469 3071.128906 2460.160156 2857.261719 2460.160156 C 2229.589844 2460.160156 1720.011719 2131.210938 1720.011719 1726.039062 "/>
<g clip-path="url(#clip-2)">
<g clip-path="url(#clip-3)">
<path fill-rule="evenodd" fill="rgb(52.929688%, 3.799438%, 0%)" fill-opacity="1" d="M 2215.390625 2331.988281 C 2372.789062 2287.199219 2551.738281 2261.871094 2741.488281 2261.871094 C 2983.828125 2261.871094 3208.570312 2303.179688 3393.148438 2373.550781 C 3228.640625 2430.289062 3044.609375 2460.160156 2857.261719 2460.160156 C 2619.191406 2460.160156 2398.101562 2412.839844 2215.390625 2331.988281 "/>
</g>
</g>
<g clip-path="url(#clip-4)">
<g clip-path="url(#clip-5)">
<path fill-rule="evenodd" fill="rgb(52.929688%, 3.799438%, 0%)" fill-opacity="1" d="M 1721.589844 1765.019531 L 2369.730469 1765.019531 C 2574.910156 1765.019531 2741.488281 1931.601562 2741.488281 2136.78125 L 2741.488281 2456.398438 C 2187.800781 2420.171875 1750.980469 2127.171875 1721.589844 1765.019531 "/>
</g>
</g>
</svg>
